<svg width="657" height="443" xmlns="http://www.w3.org/2000/svg" xmlns:xlink="http://www.w3.org/1999/xlink" xmlns:svgjs="http://svgjs.com/svgjs" viewBox="1087 1395 657 443"><svg width="578" height="364" xmlns="http://www.w3.org/2000/svg" xmlns:xlink="http://www.w3.org/1999/xlink" xmlns:svgjs="http://svgjs.com/svgjs" viewBox="0 0.185 578 363.629" fill="#d9ecf9" x="1127" y="1474"><svg xmlns="http://www.w3.org/2000/svg" xmlns:xlink="http://www.w3.org/1999/xlink" width="578" height="364" viewBox="2 1.999 577 363"><path paint-order="stroke fill markers" fill-rule="evenodd" d="M19.488 2h542.024C571.17 2 579 9.826 579 19.482v310.548c0 9.656-7.83 17.484-17.488 17.484L19.488 365C9.83 365 2 357.171 2 347.515V19.483C2 9.827 9.83 2 19.488 2z"/></svg></svg><svg width="657" height="423" xmlns="http://www.w3.org/2000/svg" xmlns:xlink="http://www.w3.org/1999/xlink" xmlns:svgjs="http://svgjs.com/svgjs" viewBox="0 0.178 657 422.644" fill="#f9fdff" x="1087" y="1395"><svg xmlns="http://www.w3.org/2000/svg" width="657" height="423" viewBox="2 1.998 656 422.001"><path paint-order="stroke fill markers" fill-rule="evenodd" d="M22 1.998h616c11.046 0 20 8.956 20 20V384c0 11.044-8.954 20-20 20L22 424c-11.046 0-20-8.956-20-20V21.998c0-11.045 8.954-20 20-20z"/></svg></svg></svg>