<svg width="194" height="162" xmlns="http://www.w3.org/2000/svg" xmlns:xlink="http://www.w3.org/1999/xlink" xmlns:svgjs="http://svgjs.com/svgjs" viewBox="174 9770 194 162"><svg width="158" height="125" xmlns="http://www.w3.org/2000/svg" xmlns:xlink="http://www.w3.org/1999/xlink" xmlns:svgjs="http://svgjs.com/svgjs" viewBox="0 0.105 158 124.79" fill="#f0faff" x="191" y="9770"><svg xmlns="http://www.w3.org/2000/svg" xmlns:xlink="http://www.w3.org/1999/xlink" width="158" height="125" viewBox="2 1 157 124"><path paint-order="stroke fill markers" fill-rule="evenodd" d="M10.135 125h140.73c4.493 0 8.135-3.652 8.135-8.158V25.475c0-4.507-3.642-8.158-8.135-8.158L10.135 1C5.642 1 2 4.653 2 9.16v107.683c0 4.506 3.642 8.159 8.135 8.159z"/></svg></svg><svg width="194" height="153" xmlns="http://www.w3.org/2000/svg" xmlns:xlink="http://www.w3.org/1999/xlink" xmlns:svgjs="http://svgjs.com/svgjs" viewBox="95.512 0 2.976 153" fill="#f0faff" x="174" y="9779"><svg xmlns="http://www.w3.org/2000/svg" width="194" height="153" viewBox="2 -9778 193 9922"><path paint-order="stroke fill markers" fill-rule="evenodd" d="M12-9778h173c5.523 0 10 0 10 9921.998V32.001c0-5.523-4.477-10-10-10L12 2C6.477 2 2 6.478 2 12v131.998C2-9778 6.477-9778 12-9778z"/></svg></svg></svg>