<svg width="647" height="93" xmlns="http://www.w3.org/2000/svg" xmlns:xlink="http://www.w3.org/1999/xlink" xmlns:svgjs="http://svgjs.com/svgjs" viewBox="174 455 647 93"><svg width="565" height="70" xmlns="http://www.w3.org/2000/svg" xmlns:xlink="http://www.w3.org/1999/xlink" xmlns:svgjs="http://svgjs.com/svgjs" viewBox="0 0.439 565 69.121" fill="#f0faff" x="215" y="478"><svg xmlns="http://www.w3.org/2000/svg" xmlns:xlink="http://www.w3.org/1999/xlink" width="565" height="70" viewBox="2 1.999 564 68.999"><path paint-order="stroke fill markers" fill-rule="evenodd" d="M23.827 2h529.077C560.137 2 566 7.864 566 15.1l-8.73 42.797c0 7.236-5.864 13.101-13.097 13.101H15.096C7.863 70.998 2 65.133 2 57.898L10.73 15.1C10.73 7.865 16.595 2 23.828 2z"/></svg></svg><svg width="647" height="80" xmlns="http://www.w3.org/2000/svg" xmlns:xlink="http://www.w3.org/1999/xlink" xmlns:svgjs="http://svgjs.com/svgjs" viewBox="0 0.438 647 79.123" fill="#f0faff" x="174" y="455"><svg xmlns="http://www.w3.org/2000/svg" width="647" height="80" viewBox="2 1.999 646 79.001"><path paint-order="stroke fill markers" fill-rule="evenodd" d="M27 1.999h606c8.284 0 15 6.716 15 15l-10 49c0 8.284-6.716 15-15 15H17C8.716 81 2 74.284 2 66l10-49c0-8.284 6.716-15 15-15z"/></svg></svg></svg>